<svg xmlns="http://www.w3.org/2000/svg" version="1.1" viewBox="0 0 512 512">
<path d="M 0.00 0.00 L 512.00 0.00 L 512.00 512.00 L 0.00 512.00 L 0.00 0.00 Z" fill="#91a0b8"/>
<path d="M 247.96 51.10 C 256.01 49.30 263.63 54.81 265.85 62.44 C 267.17 66.94 265.63 71.25 264.42 75.57 C 269.64 78.01 274.52 80.21 278.58 84.45 C 282.46 88.50 284.01 94.53 284.32 99.98 C 284.55 103.99 283.34 107.87 283.44 111.83 C 284.63 114.02 286.77 115.76 287.78 118.03 C 287.79 124.00 283.51 129.99 282.82 135.93 C 282.50 139.00 283.04 142.03 283.37 145.07 C 283.95 149.93 283.74 154.83 283.67 159.73 C 286.62 159.80 290.63 159.13 293.23 160.73 C 296.44 163.02 298.86 166.54 301.66 169.31 C 310.48 178.17 319.37 186.96 328.06 195.94 C 336.99 205.09 346.53 213.97 354.76 223.74 C 343.17 236.80 330.86 249.25 319.30 262.32 C 314.80 267.04 316.29 273.33 311.62 277.61 C 309.09 279.95 306.17 282.13 302.96 283.45 C 298.35 282.34 294.26 278.19 290.74 275.18 C 290.63 323.79 290.44 372.39 290.29 421.00 C 290.23 427.83 291.68 434.51 291.56 441.36 C 320.85 441.60 350.14 441.72 379.44 441.66 C 379.58 444.22 379.70 446.78 379.82 449.35 C 332.55 449.51 285.27 449.23 238.00 449.66 C 201.67 449.69 165.30 449.66 128.98 449.79 C 126.10 449.98 124.11 448.77 121.77 447.32 C 122.43 445.79 123.05 444.26 123.88 442.81 C 125.90 441.67 128.74 441.77 131.00 441.69 C 142.33 441.76 153.67 441.76 165.00 441.71 C 195.42 441.53 225.86 441.91 256.28 441.46 C 256.25 433.64 256.60 425.82 256.64 418.00 C 256.74 409.98 256.43 402.01 257.19 394.01 C 257.87 379.03 257.72 363.98 257.69 349.00 C 257.71 342.33 257.32 335.68 256.84 329.03 C 256.56 325.32 256.98 321.40 256.24 317.75 C 254.20 315.28 249.30 314.43 247.07 317.05 C 242.46 321.77 242.34 327.81 242.76 334.02 C 243.55 340.79 244.25 347.78 246.22 354.32 C 246.80 344.24 243.66 334.81 246.27 324.49 C 247.65 324.47 249.03 324.46 250.41 324.44 C 252.10 334.08 254.65 344.27 254.30 354.00 C 254.23 364.33 254.24 374.67 254.32 385.00 C 254.31 389.17 254.17 393.41 252.19 397.18 C 249.17 403.32 241.69 407.07 234.99 406.14 C 228.60 404.64 223.89 397.96 222.52 391.83 C 221.18 384.78 221.94 377.27 221.71 370.10 C 218.79 368.25 215.39 366.53 213.02 364.00 C 210.65 361.57 210.82 357.17 210.70 354.00 C 210.82 331.00 210.69 308.00 210.68 285.00 C 210.67 281.56 210.43 278.13 210.14 274.70 C 207.19 276.88 204.44 279.55 201.22 281.30 C 198.33 282.80 194.86 282.88 192.24 280.79 C 187.74 277.42 186.29 272.46 184.25 267.52 C 181.54 260.60 175.45 256.06 170.68 250.32 C 162.50 241.62 154.70 232.60 146.42 224.00 C 151.58 217.99 156.95 212.17 162.67 206.68 C 170.57 198.59 178.37 190.42 186.43 182.48 C 193.51 174.82 201.20 167.80 208.40 160.26 C 211.70 160.36 214.99 160.49 218.29 160.57 C 218.43 155.04 218.16 149.47 218.55 143.95 C 218.68 141.63 220.01 140.16 221.14 138.25 C 217.89 131.13 215.17 123.81 212.34 116.52 C 213.45 115.37 214.59 114.26 215.77 113.18 C 217.11 115.16 218.42 117.16 219.74 119.15 C 218.78 111.34 217.69 103.95 218.54 96.03 C 219.07 91.07 221.64 86.58 224.94 82.93 C 228.16 79.38 233.27 77.54 237.62 75.76 C 236.84 73.52 236.05 71.37 235.59 69.03 C 234.21 60.93 239.64 52.38 247.96 51.10 Z" fill="#0e3f5c"/>
<path d="M 252.10 57.28 C 254.37 58.65 256.51 59.78 257.59 62.36 C 259.23 66.01 258.33 70.67 254.47 72.43 C 251.24 73.59 247.55 72.02 245.02 69.98 C 242.53 67.81 242.73 64.11 244.61 61.61 C 246.30 59.16 249.43 58.24 252.10 57.28 Z" fill="#ff1d51"/>
<path d="M 271.67 88.32 C 277.09 93.34 276.53 101.36 276.47 108.10 C 270.71 106.51 265.00 105.00 259.02 104.46 C 248.19 103.00 236.85 104.68 226.42 107.74 C 225.89 102.24 225.74 97.00 227.93 91.78 C 229.39 89.15 232.13 87.11 234.78 85.78 C 246.44 80.14 261.18 80.20 271.67 88.32 Z" fill="#ff1d51"/>
<path d="M 244.99 111.69 C 254.61 111.07 264.42 112.55 273.72 114.98 C 271.68 125.19 270.08 134.85 264.52 143.89 C 259.93 140.77 256.49 136.52 251.21 134.30 C 247.12 136.80 243.41 139.85 239.39 142.44 C 237.08 143.56 236.09 140.32 235.15 138.83 C 231.79 131.21 231.31 122.10 230.28 113.92 C 235.21 113.31 240.06 112.22 244.99 111.69 Z" fill="#fff6f4"/>
<path d="M 276.46 138.95 C 276.63 140.57 276.82 142.19 277.01 143.82 C 276.38 153.43 277.19 163.17 276.54 172.75 C 274.10 176.61 270.13 179.65 267.17 183.16 C 262.51 188.62 257.25 193.44 252.19 198.51 C 243.21 190.09 234.79 180.96 226.64 171.74 C 226.72 161.37 226.30 151.08 227.56 140.75 C 230.59 145.28 233.33 149.92 235.84 154.76 C 241.37 151.00 246.91 147.31 252.17 143.18 C 256.51 147.05 260.96 150.79 265.37 154.58 C 270.57 150.29 273.67 144.96 276.46 138.95 Z" fill="#fff6f4"/>
<path d="M 211.68 167.62 C 213.89 167.16 216.26 167.32 218.50 167.25 C 219.35 172.40 220.61 176.14 223.66 180.40 C 215.71 180.27 207.75 180.65 199.80 180.40 C 203.46 175.93 207.34 171.43 211.68 167.62 Z" fill="#ff1d51"/>
<path d="M 283.46 167.33 C 286.49 167.27 289.53 166.76 291.81 169.14 C 295.68 172.74 299.30 176.62 302.93 180.45 C 296.34 181.13 289.84 180.59 283.23 180.71 C 283.39 176.26 283.11 171.77 283.46 167.33 Z" fill="#ff1d51"/>
<path d="M 218.45 188.03 C 222.27 187.63 226.46 187.35 230.24 188.10 C 233.91 190.30 236.82 194.15 239.72 197.27 C 243.09 201.41 247.10 204.05 249.08 209.21 C 238.74 209.42 228.40 209.21 218.06 209.55 C 218.37 202.39 218.02 195.17 218.45 188.03 Z" fill="#ff1d51"/>
<path d="M 192.03 188.37 C 198.46 188.19 204.91 188.43 211.35 188.42 C 211.23 192.11 211.70 196.19 210.71 199.77 C 207.91 202.62 204.52 204.98 201.47 207.57 C 199.23 209.44 196.75 209.16 194.00 209.27 C 186.51 209.24 179.03 209.21 171.54 209.23 C 178.11 202.08 184.94 195.01 192.03 188.37 Z" fill="#ff1d51"/>
<path d="M 280.08 187.69 C 281.99 189.32 282.22 191.60 282.40 193.95 C 282.64 198.87 282.62 203.81 282.87 208.74 C 273.38 208.52 263.86 210.02 254.67 208.52 C 256.95 204.56 260.18 201.56 263.41 198.42 C 266.47 195.47 269.02 192.02 272.13 189.14 C 274.20 187.12 277.43 187.31 280.08 187.69 Z" fill="#ff1d51"/>
<path d="M 290.60 188.56 C 296.75 187.92 302.98 188.16 309.15 187.61 C 316.23 194.65 323.43 201.62 330.32 208.85 C 322.90 209.48 315.46 209.16 308.00 209.35 C 304.84 209.27 302.08 209.75 299.46 207.60 C 296.60 205.31 294.23 203.56 290.50 202.91 C 290.53 198.15 290.12 193.30 290.60 188.56 Z" fill="#ff1d51"/>
<path d="M 210.25 210.53 C 210.38 222.84 210.34 235.17 210.34 247.48 C 203.81 241.19 197.59 234.57 191.31 228.03 C 197.61 222.18 203.63 215.98 210.25 210.53 Z" fill="#91a0b8"/>
<path d="M 290.89 211.05 C 297.72 216.38 303.91 222.66 310.07 228.75 C 303.94 235.11 297.52 241.18 291.40 247.54 C 291.17 235.36 291.51 223.21 290.89 211.05 Z" fill="#91a0b8"/>
<path d="M 163.84 216.72 C 173.03 216.71 182.25 216.54 191.44 216.72 C 189.22 219.43 186.85 221.89 184.20 224.20 C 179.26 228.53 174.61 233.17 169.81 237.66 C 165.35 233.33 161.25 228.61 157.02 224.05 C 159.21 221.57 161.41 218.96 163.84 216.72 Z" fill="#ff1d51"/>
<path d="M 218.40 216.73 C 228.38 216.80 238.40 216.41 248.36 216.92 C 248.40 224.73 248.65 232.54 248.63 240.35 C 238.50 240.21 228.38 240.32 218.25 240.26 C 217.92 232.38 217.62 224.61 218.40 216.73 Z" fill="#ff1d51"/>
<path d="M 254.93 217.38 C 257.78 216.59 261.05 216.68 264.00 216.66 C 270.20 216.73 276.40 216.64 282.60 216.58 C 282.78 224.52 282.69 232.47 282.74 240.40 C 273.61 240.33 264.49 240.45 255.36 240.30 C 255.51 232.64 254.98 225.02 254.93 217.38 Z" fill="#ff1d51"/>
<path d="M 309.41 217.37 C 319.02 216.28 328.48 217.14 338.12 216.81 C 340.33 218.91 342.56 220.99 344.81 223.03 C 340.28 228.45 335.62 233.72 330.79 238.88 C 323.95 231.41 316.36 224.72 309.41 217.37 Z" fill="#ff1d51"/>
<path d="M 186.00 234.12 C 195.15 242.63 203.73 251.79 212.47 260.71 C 207.41 265.49 203.70 270.64 197.32 273.79 C 193.32 270.12 193.17 265.23 190.01 261.02 C 185.31 255.02 180.19 249.32 174.88 243.85 C 178.68 240.71 182.21 237.27 186.00 234.12 Z" fill="#fff6f4"/>
<path d="M 315.81 234.29 C 319.64 236.98 322.58 240.85 326.05 244.00 C 322.05 248.36 318.23 252.87 314.20 257.20 C 311.39 260.25 309.10 263.63 307.58 267.50 C 306.51 270.23 305.16 272.49 303.34 274.78 C 299.04 270.64 294.26 267.03 289.98 262.91 C 288.99 260.11 290.92 258.49 292.58 256.59 C 298.41 250.74 304.39 245.04 310.18 239.16 C 311.92 237.43 313.76 235.64 315.81 234.29 Z" fill="#fff6f4"/>
<path d="M 218.47 247.69 C 228.51 247.71 238.55 247.43 248.58 247.56 C 248.65 255.92 248.12 264.19 249.15 272.53 C 238.64 272.72 228.13 272.54 217.62 272.63 C 217.97 270.06 218.06 267.30 218.90 264.84 C 219.99 262.95 223.14 263.41 225.02 262.44 C 222.64 260.00 220.44 257.40 218.20 254.83 C 218.28 252.45 218.38 250.07 218.47 247.69 Z" fill="#ff1d51"/>
<path d="M 255.24 247.71 C 264.40 247.65 273.56 247.72 282.72 247.72 C 282.70 250.67 282.67 253.62 282.64 256.56 C 281.54 257.66 280.45 258.76 279.35 259.86 C 279.48 261.26 279.61 262.65 279.74 264.04 C 280.92 264.48 282.11 264.93 283.29 265.37 C 283.31 267.49 283.33 269.61 283.34 271.72 C 273.99 272.33 264.63 272.15 255.27 272.67 C 255.28 264.35 255.38 256.03 255.24 247.71 Z" fill="#ff1d51"/>
<path d="M 248.50 279.83 C 248.43 285.03 248.44 290.22 248.54 295.42 C 239.69 295.29 230.84 295.37 221.99 295.30 C 220.43 295.10 218.90 295.56 217.86 294.18 C 217.31 289.63 217.70 284.98 217.51 280.40 C 227.87 280.69 238.16 280.01 248.50 279.83 Z" fill="#ff1d51"/>
<path d="M 255.29 279.79 C 264.41 279.79 273.54 279.76 282.66 279.68 C 282.62 284.92 282.53 290.15 282.41 295.38 C 273.42 295.33 264.44 295.32 255.45 295.30 C 255.36 290.13 255.36 284.96 255.29 279.79 Z" fill="#ff1d51"/>
<path d="M 245.05 362.67 C 246.00 365.28 247.64 368.12 247.12 370.96 C 246.82 372.35 246.91 374.51 245.48 375.27 C 243.09 376.93 240.52 378.62 237.77 379.60 C 234.49 378.43 231.60 375.84 228.73 373.91 C 234.25 370.28 239.26 365.84 245.05 362.67 Z" fill="#ff1d51"/>
<path d="M 246.33 381.54 C 246.39 385.83 247.00 389.64 244.43 393.40 C 242.71 396.52 239.93 398.13 236.95 399.86 C 233.48 396.74 230.51 393.52 229.59 388.78 C 229.05 386.28 229.93 384.25 230.69 381.92 C 232.96 383.75 235.22 385.60 237.46 387.48 C 240.26 385.24 243.13 383.18 246.33 381.54 Z" fill="#ff1d51"/>
<path d="M 280.49 413.54 C 283.12 415.54 282.28 420.51 282.63 423.42 C 279.67 421.90 276.77 420.26 273.88 418.62 C 272.12 420.26 270.28 422.76 267.92 423.49 C 266.31 422.32 265.01 420.85 264.61 418.85 C 264.46 417.19 263.61 415.48 265.43 414.50 C 269.91 410.97 275.68 410.06 280.49 413.54 Z" fill="#ff1d51"/>
<path d="M 270.37 429.47 C 274.62 428.55 280.28 429.22 283.41 432.54 C 284.44 435.27 284.20 438.56 284.43 441.44 C 277.77 441.76 271.17 441.59 264.51 441.56 C 264.11 439.59 263.72 437.63 263.33 435.66 C 265.41 433.08 266.95 430.38 270.37 429.47 Z" fill="#ff1d51"/>
</svg>